%TF.GenerationSoftware,KiCad,Pcbnew,10.0.4*%
%TF.CreationDate,2026-08-02T23:43:31+09:00*%
%TF.ProjectId,nfc-business-card,6e66632d-6275-4736-996e-6573732d6361,B*%
%TF.SameCoordinates,Original*%
%TF.FileFunction,Copper,L2,Bot*%
%TF.FilePolarity,Positive*%
%FSLAX46Y46*%
G04 Gerber Fmt 4.6, Leading zero omitted, Abs format (unit mm)*
G04 Created by KiCad (PCBNEW 10.0.4) date 2026-08-02 23:43:31*
%MOMM*%
%LPD*%
G01*
G04 APERTURE LIST*
G04 Aperture macros list*
%AMRoundRect*
0 Rectangle with rounded corners*
0 $1 Rounding radius*
0 $2 $3 $4 $5 $6 $7 $8 $9 X,Y pos of 4 corners*
0 Add a 4 corners polygon primitive as box body*
4,1,4,$2,$3,$4,$5,$6,$7,$8,$9,$2,$3,0*
0 Add four circle primitives for the rounded corners*
1,1,$1+$1,$2,$3*
1,1,$1+$1,$4,$5*
1,1,$1+$1,$6,$7*
1,1,$1+$1,$8,$9*
0 Add four rect primitives between the rounded corners*
20,1,$1+$1,$2,$3,$4,$5,0*
20,1,$1+$1,$4,$5,$6,$7,0*
20,1,$1+$1,$6,$7,$8,$9,0*
20,1,$1+$1,$8,$9,$2,$3,0*%
G04 Aperture macros list end*
%TA.AperFunction,SMDPad,CuDef*%
%ADD10RoundRect,0.078000X-0.182000X-0.232000X0.182000X-0.232000X0.182000X0.232000X-0.182000X0.232000X0*%
%TD*%
%TA.AperFunction,ViaPad*%
%ADD11C,0.500000*%
%TD*%
%TA.AperFunction,Conductor*%
%ADD12C,0.250000*%
%TD*%
%ADD13C,0.300000*%
G04 APERTURE END LIST*
D10*
%TO.P,R2,1*%
%TO.N,SCL*%
X51380000Y-9175000D03*
%TO.P,R2,2*%
%TO.N,GND*%
X50420000Y-9175000D03*
%TD*%
%TO.P,R4,1*%
%TO.N,FD*%
X51380000Y-10375000D03*
%TO.P,R4,2*%
%TO.N,GND*%
X50420000Y-10375000D03*
%TD*%
%TO.P,R3,1*%
%TO.N,SDA*%
X51380000Y-11575000D03*
%TO.P,R3,2*%
%TO.N,GND*%
X50420000Y-11575000D03*
%TD*%
%TO.P,R5,1*%
%TO.N,VCC*%
X51380000Y-12775000D03*
%TO.P,R5,2*%
%TO.N,GND*%
X50420000Y-12775000D03*
%TD*%
%TO.P,R6,1*%
%TO.N,VOUT*%
X51380000Y-13975000D03*
%TO.P,R6,2*%
%TO.N,GND*%
X50420000Y-13975000D03*
%TD*%
D11*
%TO.N,LB*%
X60500000Y-6500000D03*
X56400000Y-6575000D03*
X54700000Y-6575000D03*
X54700000Y-7375000D03*
X54700000Y-5125000D03*
%TO.N,SCL*%
X51500000Y-3525000D03*
%TO.N,FD*%
X52200000Y-2825000D03*
%TO.N,SDA*%
X54550000Y-2125000D03*
%TO.N,VCC*%
X55200000Y-3175000D03*
%TO.N,VOUT*%
X55800000Y-4325000D03*
%TO.N,GND*%
X50420000Y-4750000D03*
%TD*%
%TO.N,LB*%
D12*
X60500000Y-6500000D02*
X56400000Y-6500000D01*
X56400000Y-6500000D02*
X56400000Y-6575000D01*
X54700000Y-6575000D02*
X54700000Y-5125000D01*
X54700000Y-7375000D02*
X54700000Y-5125000D01*
%TO.N,SCL*%
X51500000Y-3525000D02*
X51500000Y-9175000D01*
X51500000Y-9175000D02*
X51380000Y-9175000D01*
%TO.N,FD*%
X52200000Y-2825000D02*
X52200000Y-10375000D01*
X52200000Y-10375000D02*
X51380000Y-10375000D01*
%TO.N,SDA*%
X54550000Y-2125000D02*
X52900000Y-2125000D01*
X52900000Y-2125000D02*
X52900000Y-11575000D01*
X52900000Y-11575000D02*
X51380000Y-11575000D01*
%TO.N,VCC*%
X55200000Y-3175000D02*
X53600000Y-3175000D01*
X53600000Y-3175000D02*
X53600000Y-12775000D01*
X53600000Y-12775000D02*
X51380000Y-12775000D01*
%TO.N,VOUT*%
X55800000Y-4325000D02*
X55800000Y-1575000D01*
X55800000Y-1575000D02*
X55800000Y-1575000D01*
X55800000Y-1575000D02*
X55800000Y-13975000D01*
X55800000Y-13975000D02*
X51380000Y-13975000D01*
%TO.N,GND*%
X50420000Y-4750000D02*
X50420000Y-13975000D01*
%TD*%
D13*
X60500000Y-6500000D03*
X56400000Y-6575000D03*
X54700000Y-6575000D03*
X54700000Y-7375000D03*
X54700000Y-5125000D03*
X51500000Y-3525000D03*
X52200000Y-2825000D03*
X54550000Y-2125000D03*
X55200000Y-3175000D03*
X55800000Y-4325000D03*
X50420000Y-4750000D03*
M02*
