%TF.GenerationSoftware,KiCad,Pcbnew,10.0.4*%
%TF.CreationDate,2026-08-02T02:14:52+09:00*%
%TF.ProjectId,nfc-business-card,6e66632d-6275-4736-996e-6573732d6361,B*%
%TF.SameCoordinates,Original*%
%TF.FileFunction,Copper,L1,Top*%
%TF.FilePolarity,Positive*%
%FSLAX46Y46*%
G04 Gerber Fmt 4.6, Leading zero omitted, Abs format (unit mm)*
G04 Created by KiCad (PCBNEW 10.0.4) date 2026-08-02 02:14:52*
%MOMM*%
%LPD*%
G01*
G04 APERTURE LIST*
G04 Aperture macros list*
%AMRoundRect*
0 Rectangle with rounded corners*
0 $1 Rounding radius*
0 $2 $3 $4 $5 $6 $7 $8 $9 X,Y pos of 4 corners*
0 Add a 4 corners polygon primitive as box body*
4,1,4,$2,$3,$4,$5,$6,$7,$8,$9,$2,$3,0*
0 Add four circle primitives for the rounded corners*
1,1,$1+$1,$2,$3*
1,1,$1+$1,$4,$5*
1,1,$1+$1,$6,$7*
1,1,$1+$1,$8,$9*
0 Add four rect primitives between the rounded corners*
20,1,$1+$1,$2,$3,$4,$5,0*
20,1,$1+$1,$4,$5,$6,$7,0*
20,1,$1+$1,$6,$7,$8,$9,0*
20,1,$1+$1,$8,$9,$2,$3,0*%
G04 Aperture macros list end*
%ADD10C,0.119496*%
%TA.AperFunction,NonConductor*%
%ADD11C,0.119496*%
%TD*%
%TA.AperFunction,SMDPad,CuDef*%
%ADD12RoundRect,0.045000X0.045000X-0.165000X0.045000X0.165000X-0.045000X0.165000X-0.045000X-0.165000X0*%
%TD*%
%TA.AperFunction,SMDPad,CuDef*%
%ADD13RoundRect,0.045000X-0.165000X-0.045000X0.165000X-0.045000X0.165000X0.045000X-0.165000X0.045000X0*%
%TD*%
%TA.AperFunction,ConnectorPad*%
%ADD14C,0.450000*%
%TD*%
%TA.AperFunction,SMDPad,CuDef*%
%ADD15RoundRect,0.078000X-0.182000X-0.232000X0.182000X-0.232000X0.182000X0.232000X-0.182000X0.232000X0*%
%TD*%
%TA.AperFunction,SMDPad,CuDef*%
%ADD16RoundRect,0.080000X-0.195000X-0.120000X0.195000X-0.120000X0.195000X0.120000X-0.195000X0.120000X0*%
%TD*%
%TA.AperFunction,ViaPad*%
%ADD17C,0.600000*%
%TD*%
%TA.AperFunction,Conductor*%
%ADD18C,0.180000*%
%TD*%
%TA.AperFunction,Conductor*%
%ADD19C,0.250000*%
%TD*%
%ADD20C,0.300000*%
G04 APERTURE END LIST*
D10*
D11*
G36*
X10719733Y-11669888D02*
G01*
X9910557Y-13970689D01*
X9470177Y-15284240D01*
X8650378Y-15284240D01*
X8390096Y-14492264D01*
X7830073Y-12886813D01*
X7810849Y-12886813D01*
X7242984Y-14442687D01*
X6947037Y-15284240D01*
X6122431Y-15284240D01*
X5752118Y-14160146D01*
X4892859Y-11692400D01*
X5827496Y-11415171D01*
X6082466Y-12249135D01*
X6626300Y-13965124D01*
X6645524Y-13943623D01*
X7189612Y-12392050D01*
X7456218Y-11596533D01*
X8230993Y-11596533D01*
X8497092Y-12426198D01*
X9003997Y-13965124D01*
X9023221Y-13962088D01*
X9569838Y-12274936D01*
X9827591Y-11415171D01*
X10719733Y-11669888D01*
G37*
G36*
X12278070Y-12376749D02*
G01*
X12616831Y-12436316D01*
X12822410Y-12504749D01*
X12999969Y-12595372D01*
X13153078Y-12707727D01*
X13275308Y-12831453D01*
X13372482Y-12970863D01*
X13445989Y-13127871D01*
X13512369Y-13396175D01*
X13538062Y-13779461D01*
X13536544Y-14848666D01*
X13535027Y-15284240D01*
X13167243Y-15311558D01*
X12482516Y-15332805D01*
X12237375Y-15323650D01*
X11940705Y-15293599D01*
X11650880Y-15239768D01*
X11433042Y-15167631D01*
X11196266Y-15034271D01*
X11025545Y-14872190D01*
X10944144Y-14743444D01*
X10895311Y-14601503D01*
X10878583Y-14442434D01*
X10887118Y-14360732D01*
X11746948Y-14360732D01*
X11769057Y-14503447D01*
X11830421Y-14607102D01*
X11924674Y-14686826D01*
X12047449Y-14748246D01*
X12265488Y-14798329D01*
X12529059Y-14814771D01*
X12614049Y-14813506D01*
X12716239Y-14811988D01*
X12716998Y-14643273D01*
X12717757Y-14313684D01*
X12717757Y-14107533D01*
X12714974Y-13859645D01*
X12423327Y-13891516D01*
X12221128Y-13931674D01*
X12049725Y-13989660D01*
X11942421Y-14045768D01*
X11841803Y-14128274D01*
X11770876Y-14232912D01*
X11746948Y-14360732D01*
X10887118Y-14360732D01*
X10896698Y-14269027D01*
X10949095Y-14117673D01*
X11035663Y-13983589D01*
X11151351Y-13870940D01*
X11311688Y-13766023D01*
X11526885Y-13669935D01*
X11764719Y-13597940D01*
X12078814Y-13538403D01*
X12673491Y-13471119D01*
X12647803Y-13328477D01*
X12592801Y-13220955D01*
X12501941Y-13138255D01*
X12348202Y-13069440D01*
X12097532Y-13017333D01*
X11770978Y-13001651D01*
X11476548Y-13007216D01*
X11213484Y-13017839D01*
X11287850Y-12370296D01*
X11468960Y-12360179D01*
X11820050Y-12354108D01*
X12278070Y-12376749D01*
G37*
G36*
X16158081Y-14701451D02*
G01*
X16076632Y-15300428D01*
X15943330Y-15311052D01*
X15699995Y-15316617D01*
X15347981Y-15296950D01*
X15065367Y-15243112D01*
X14840087Y-15161244D01*
X14661903Y-15055070D01*
X14511462Y-14911517D01*
X14403554Y-14738347D01*
X14336077Y-14529537D01*
X14312078Y-14275995D01*
X14315619Y-13664118D01*
X14319414Y-13017839D01*
X13847668Y-13017839D01*
X13847668Y-12402674D01*
X14341167Y-12402674D01*
X14341167Y-11641811D01*
X15176649Y-11641811D01*
X15176649Y-12402674D01*
X16146952Y-12402674D01*
X16146952Y-13017839D01*
X15176649Y-13017839D01*
X15173614Y-13267245D01*
X15170578Y-13573310D01*
X15171084Y-13802732D01*
X15171843Y-14086032D01*
X15193399Y-14285747D01*
X15252185Y-14436159D01*
X15344605Y-14549177D01*
X15471050Y-14625345D01*
X15673348Y-14679803D01*
X15982283Y-14701451D01*
X16087256Y-14701451D01*
X16158081Y-14701451D01*
G37*
G36*
X17790279Y-12376749D02*
G01*
X18129040Y-12436316D01*
X18334618Y-12504749D01*
X18512178Y-12595372D01*
X18665286Y-12707727D01*
X18787517Y-12831453D01*
X18884691Y-12970863D01*
X18958198Y-13127871D01*
X19024578Y-13396175D01*
X19050271Y-13779461D01*
X19048753Y-14848666D01*
X19047235Y-15284240D01*
X18679451Y-15311558D01*
X17994725Y-15332805D01*
X17749584Y-15323650D01*
X17452914Y-15293599D01*
X17163089Y-15239768D01*
X16945251Y-15167631D01*
X16708475Y-15034271D01*
X16537754Y-14872190D01*
X16456353Y-14743444D01*
X16407519Y-14601503D01*
X16390792Y-14442434D01*
X16399327Y-14360732D01*
X17259157Y-14360732D01*
X17281266Y-14503447D01*
X17342629Y-14607102D01*
X17436883Y-14686826D01*
X17559657Y-14748246D01*
X17777697Y-14798329D01*
X18041267Y-14814771D01*
X18126257Y-14813506D01*
X18228448Y-14811988D01*
X18229207Y-14643273D01*
X18229966Y-14313684D01*
X18229966Y-14107533D01*
X18227183Y-13859645D01*
X17935536Y-13891516D01*
X17733337Y-13931674D01*
X17561934Y-13989660D01*
X17454630Y-14045768D01*
X17354012Y-14128274D01*
X17283085Y-14232912D01*
X17259157Y-14360732D01*
X16399327Y-14360732D01*
X16408907Y-14269027D01*
X16461304Y-14117673D01*
X16547872Y-13983589D01*
X16663560Y-13870940D01*
X16823897Y-13766023D01*
X17039094Y-13669935D01*
X17276927Y-13597940D01*
X17591023Y-13538403D01*
X18185700Y-13471119D01*
X18160012Y-13328477D01*
X18105010Y-13220955D01*
X18014150Y-13138255D01*
X17860411Y-13069440D01*
X17609741Y-13017333D01*
X17283187Y-13001651D01*
X16988757Y-13007216D01*
X16725693Y-13017839D01*
X16800059Y-12370296D01*
X16981169Y-12360179D01*
X17332259Y-12354108D01*
X17790279Y-12376749D01*
G37*
G36*
X21925513Y-13034028D02*
G01*
X21405455Y-13220702D01*
X20656228Y-13552062D01*
X20654457Y-13807285D01*
X20652939Y-14182658D01*
X20657493Y-14847148D01*
X20662298Y-15284240D01*
X19793427Y-15284240D01*
X19797728Y-14860807D01*
X19802281Y-13955006D01*
X19799245Y-13272051D01*
X19793427Y-12402674D01*
X20643833Y-12402674D01*
X20640292Y-12823577D01*
X20645857Y-12827624D01*
X20922307Y-12662792D01*
X21223587Y-12506635D01*
X21517147Y-12374027D01*
X21704944Y-12305542D01*
X21925513Y-13034028D01*
G37*
G36*
X25026383Y-15284240D02*
G01*
X24179013Y-15284240D01*
X24180278Y-15009034D01*
X24177495Y-15004987D01*
X23959503Y-15116815D01*
X23669326Y-15242756D01*
X23366580Y-15336005D01*
X23093620Y-15365182D01*
X22889012Y-15348361D01*
X22717822Y-15300994D01*
X22573887Y-15225718D01*
X22452653Y-15122354D01*
X22329893Y-14947696D01*
X22252739Y-14729585D01*
X22225002Y-14455840D01*
X22228543Y-13875581D01*
X22232337Y-13419265D01*
X22227025Y-12816494D01*
X22221713Y-12402674D01*
X23090584Y-12402674D01*
X23086031Y-12796005D01*
X23081478Y-13335793D01*
X23084261Y-13769849D01*
X23087296Y-14153316D01*
X23111042Y-14384640D01*
X23166468Y-14535265D01*
X23228336Y-14607482D01*
X23316775Y-14652461D01*
X23441421Y-14669074D01*
X23625023Y-14647312D01*
X23842088Y-14575484D01*
X24045234Y-14480581D01*
X24163583Y-14410057D01*
X24165860Y-14126251D01*
X24168136Y-13530056D01*
X24162824Y-12862277D01*
X24157512Y-12402674D01*
X25026383Y-12402674D01*
X25021830Y-12824588D01*
X25017530Y-13714960D01*
X25020313Y-14385268D01*
X25026383Y-15284240D01*
G37*
G36*
X32088395Y-15160296D02*
G01*
X31184870Y-15332805D01*
X30709584Y-12811941D01*
X30694154Y-12785888D01*
X30357483Y-13579128D01*
X29831354Y-14892931D01*
X29125381Y-14892931D01*
X28858056Y-14208029D01*
X28591664Y-13566480D01*
X28261063Y-12792717D01*
X28245633Y-12791199D01*
X28055923Y-13713695D01*
X27747328Y-15332805D01*
X26872892Y-15165861D01*
X27384603Y-12775011D01*
X27632997Y-11543668D01*
X28541074Y-11447548D01*
X28855234Y-12253435D01*
X29494935Y-13842698D01*
X29516689Y-13842698D01*
X30135649Y-12321478D01*
X30489268Y-11447548D01*
X31415052Y-11526720D01*
X31620191Y-12678132D01*
X32088395Y-15160296D01*
G37*
G36*
X33804824Y-12376749D02*
G01*
X34143585Y-12436316D01*
X34349164Y-12504749D01*
X34526723Y-12595372D01*
X34679831Y-12707727D01*
X34802062Y-12831453D01*
X34899236Y-12970863D01*
X34972743Y-13127871D01*
X35039123Y-13396175D01*
X35064816Y-13779461D01*
X35063298Y-14848666D01*
X35061781Y-15284240D01*
X34693996Y-15311558D01*
X34009270Y-15332805D01*
X33764129Y-15323650D01*
X33467459Y-15293599D01*
X33177634Y-15239768D01*
X32959796Y-15167631D01*
X32723020Y-15034271D01*
X32552299Y-14872190D01*
X32470898Y-14743444D01*
X32422065Y-14601503D01*
X32405337Y-14442434D01*
X32413872Y-14360732D01*
X33273702Y-14360732D01*
X33295811Y-14503447D01*
X33357174Y-14607102D01*
X33451428Y-14686826D01*
X33574203Y-14748246D01*
X33792242Y-14798329D01*
X34055813Y-14814771D01*
X34140803Y-14813506D01*
X34242993Y-14811988D01*
X34243752Y-14643273D01*
X34244511Y-14313684D01*
X34244511Y-14107533D01*
X34241728Y-13859645D01*
X33950081Y-13891516D01*
X33747882Y-13931674D01*
X33576479Y-13989660D01*
X33469175Y-14045768D01*
X33368557Y-14128274D01*
X33297630Y-14232912D01*
X33273702Y-14360732D01*
X32413872Y-14360732D01*
X32423452Y-14269027D01*
X32475849Y-14117673D01*
X32562417Y-13983589D01*
X32678105Y-13870940D01*
X32838442Y-13766023D01*
X33053639Y-13669935D01*
X33291472Y-13597940D01*
X33605568Y-13538403D01*
X34200245Y-13471119D01*
X34174557Y-13328477D01*
X34119555Y-13220955D01*
X34028695Y-13138255D01*
X33874956Y-13069440D01*
X33624286Y-13017333D01*
X33297732Y-13001651D01*
X33003302Y-13007216D01*
X32740238Y-13017839D01*
X32814604Y-12370296D01*
X32995714Y-12360179D01*
X33346804Y-12354108D01*
X33804824Y-12376749D01*
G37*
G36*
X38645020Y-15284240D02*
G01*
X37776402Y-15284240D01*
X37780702Y-14852207D01*
X37785255Y-14306854D01*
X37783737Y-13905934D01*
X37779437Y-13513614D01*
X37750750Y-13274069D01*
X37690400Y-13135459D01*
X37625698Y-13073357D01*
X37531032Y-13033054D01*
X37395211Y-13017839D01*
X37249875Y-13035203D01*
X37063346Y-13094735D01*
X36877305Y-13178906D01*
X36703150Y-13276857D01*
X36700873Y-13591775D01*
X36698597Y-14092103D01*
X36703909Y-14820336D01*
X36709221Y-15284240D01*
X35840350Y-15284240D01*
X35844650Y-14889137D01*
X35849203Y-13926676D01*
X35846167Y-13186049D01*
X35840350Y-12402674D01*
X36692526Y-12402674D01*
X36689744Y-12677879D01*
X36692526Y-12683697D01*
X36968494Y-12541414D01*
X37261403Y-12424933D01*
X37555195Y-12345367D01*
X37790820Y-12321731D01*
X38040499Y-12350430D01*
X38243825Y-12431544D01*
X38411297Y-12563801D01*
X38536219Y-12737785D01*
X38613986Y-12951451D01*
X38641732Y-13215896D01*
X38638190Y-13786038D01*
X38634649Y-14169505D01*
X38639708Y-14816036D01*
X38645020Y-15284240D01*
G37*
G36*
X40378968Y-11949394D02*
G01*
X39481514Y-11949394D01*
X39481514Y-11285662D01*
X40378968Y-11285662D01*
X40378968Y-11949394D01*
G37*
G36*
X40363032Y-15132472D02*
G01*
X40348509Y-15365754D01*
X40306460Y-15577034D01*
X40238329Y-15769391D01*
X40139945Y-15946129D01*
X40010698Y-16099243D01*
X39847780Y-16231018D01*
X39652180Y-16347879D01*
X39403100Y-16450323D01*
X39124171Y-16524494D01*
X38760363Y-16579325D01*
X38579760Y-15934818D01*
X38984221Y-15861463D01*
X39156081Y-15800556D01*
X39284215Y-15723102D01*
X39384181Y-15615932D01*
X39452425Y-15486091D01*
X39489298Y-15325818D01*
X39504785Y-15051782D01*
X39500232Y-13414206D01*
X39495932Y-12402674D01*
X40363032Y-12402674D01*
X40360756Y-12790693D01*
X40358479Y-13603157D01*
X40360756Y-14403227D01*
X40363032Y-15132472D01*
G37*
G36*
X42071432Y-11949394D02*
G01*
X41173725Y-11949394D01*
X41173725Y-11285662D01*
X42071432Y-11285662D01*
X42071432Y-11949394D01*
G37*
G36*
X42057014Y-15284240D02*
G01*
X41188143Y-15284240D01*
X41192443Y-14708533D01*
X41196996Y-13884434D01*
X41195479Y-13204261D01*
X41188143Y-12402674D01*
X42057014Y-12402674D01*
X42050438Y-13123824D01*
X42046391Y-13844974D01*
X42051702Y-14822865D01*
X42057014Y-15284240D01*
G37*
D12*
%TO.P,U1,1*%
%TO.N,LA*%
X53300000Y-5125000D03*
D13*
%TO.P,U1,2*%
%TO.N,GND*%
X52750000Y-4575000D03*
%TO.P,U1,3*%
%TO.N,SCL*%
X52750000Y-4175000D03*
D12*
%TO.P,U1,4*%
%TO.N,FD*%
X53300000Y-3625000D03*
%TO.P,U1,5*%
%TO.N,SDA*%
X53700000Y-3625000D03*
D13*
%TO.P,U1,6*%
%TO.N,VCC*%
X54250000Y-4175000D03*
%TO.P,U1,7*%
%TO.N,VOUT*%
X54250000Y-4575000D03*
D12*
%TO.P,U1,8*%
%TO.N,LB*%
X53700000Y-5125000D03*
%TD*%
D14*
%TO.P,ANT1,1*%
%TO.N,LA*%
X59200000Y-5750000D03*
%TO.P,ANT1,2*%
%TO.N,LB*%
X60500000Y-5750000D03*
%TD*%
D15*
%TO.P,C1,1*%
%TO.N,LA*%
X53020000Y-7375000D03*
%TO.P,C1,2*%
%TO.N,LB*%
X53980000Y-7375000D03*
%TD*%
D16*
%TO.P,GND1,1*%
%TO.N,GND*%
X51800000Y-4575000D03*
%TD*%
D17*
%TO.N,LB*%
X60500000Y-6500000D03*
X55500000Y-5125000D03*
%TO.N,SCL*%
X52750000Y-4175000D03*
%TO.N,FD*%
X53300000Y-3625000D03*
%TO.N,SDA*%
X53700000Y-3625000D03*
%TO.N,VCC*%
X54250000Y-4175000D03*
%TO.N,VOUT*%
X54250000Y-4575000D03*
%TO.N,GND*%
X51800000Y-4575000D03*
%TD*%
%TO.N,LA*%
D18*
X57000000Y-3000000D02*
X50900000Y-3000000D01*
X50900000Y-3000000D02*
X50900000Y-5125000D01*
X50900000Y-5125000D02*
X53300000Y-5125000D01*
X53020000Y-7375000D02*
X53300000Y-7375000D01*
X53300000Y-7375000D02*
X53300000Y-5125000D01*
%TO.N,LB*%
X60500000Y-5750000D02*
X60500000Y-6500000D01*
X55500000Y-5125000D02*
X53700000Y-5125000D01*
X53980000Y-7375000D02*
X53700000Y-7375000D01*
X53700000Y-7375000D02*
X53700000Y-5125000D01*
%TO.N,GND*%
X52750000Y-4575000D02*
X51800000Y-4575000D01*
%TO.N,LA*%
D19*
X57000000Y-3000000D02*
X86000000Y-3000000D01*
X86000000Y-3000000D02*
X86000000Y-48000000D01*
X86000000Y-48000000D02*
X57000000Y-48000000D01*
X57000000Y-48000000D02*
X57000000Y-3550000D01*
X57000000Y-3550000D02*
X57550000Y-3550000D01*
X57550000Y-3550000D02*
X85450000Y-3550000D01*
X85450000Y-3550000D02*
X85450000Y-47450000D01*
X85450000Y-47450000D02*
X57550000Y-47450000D01*
X57550000Y-47450000D02*
X57550000Y-4100000D01*
X57550000Y-4100000D02*
X58100000Y-4100000D01*
X58100000Y-4100000D02*
X84900000Y-4100000D01*
X84900000Y-4100000D02*
X84900000Y-46900000D01*
X84900000Y-46900000D02*
X58100000Y-46900000D01*
X58100000Y-46900000D02*
X58100000Y-4650000D01*
X58100000Y-4650000D02*
X58650000Y-4650000D01*
X58650000Y-4650000D02*
X84350000Y-4650000D01*
X84350000Y-4650000D02*
X84350000Y-46350000D01*
X84350000Y-46350000D02*
X58650000Y-46350000D01*
X58650000Y-46350000D02*
X58650000Y-5200000D01*
X58650000Y-5200000D02*
X59200000Y-5200000D01*
X59200000Y-5200000D02*
X83800000Y-5200000D01*
X83800000Y-5200000D02*
X83800000Y-45800000D01*
X83800000Y-45800000D02*
X59200000Y-45800000D01*
X59200000Y-45800000D02*
X59200000Y-5750000D01*
%TD*%
D20*
X60500000Y-6500000D03*
X55500000Y-5125000D03*
X52750000Y-4175000D03*
X53300000Y-3625000D03*
X53700000Y-3625000D03*
X54250000Y-4175000D03*
X54250000Y-4575000D03*
X51800000Y-4575000D03*
M02*
