%TF.GenerationSoftware,KiCad,Pcbnew,10.0.4*%
%TF.CreationDate,2026-08-02T23:43:31+09:00*%
%TF.ProjectId,nfc-business-card,6e66632d-6275-4736-996e-6573732d6361,B*%
%TF.SameCoordinates,Original*%
%TF.FileFunction,OtherDrawing,Comment*%
%FSLAX46Y46*%
G04 Gerber Fmt 4.6, Leading zero omitted, Abs format (unit mm)*
G04 Created by KiCad (PCBNEW 10.0.4) date 2026-08-02 23:43:31*
%MOMM*%
%LPD*%
G01*
G04 APERTURE LIST*
%ADD10C,0.100000*%
%ADD11C,0.150000*%
G04 APERTURE END LIST*
D10*
X50000000Y0D02*
X50000000Y-1100000D01*
X50000000Y-1500000D02*
X50000000Y-2600000D01*
X50000000Y-3000000D02*
X50000000Y-4100000D01*
X50000000Y-4500000D02*
X50000000Y-5600000D01*
X50000000Y-6000000D02*
X50000000Y-7100000D01*
X50000000Y-7500000D02*
X50000000Y-8600000D01*
X50000000Y-9000000D02*
X50000000Y-10100000D01*
X50000000Y-10500000D02*
X50000000Y-11600000D01*
X50000000Y-12000000D02*
X50000000Y-13100000D01*
X50000000Y-13500000D02*
X50000000Y-14600000D01*
X50000000Y-15000000D02*
X50000000Y-16100000D01*
X50000000Y-16500000D02*
X50000000Y-17600000D01*
X50000000Y-18000000D02*
X50000000Y-19100000D01*
X50000000Y-19500000D02*
X50000000Y-20600000D01*
X50000000Y-21000000D02*
X50000000Y-22100000D01*
X50000000Y-22500000D02*
X50000000Y-23600000D01*
X50000000Y-24000000D02*
X50000000Y-25100000D01*
X50000000Y-25500000D02*
X50000000Y-26600000D01*
X50000000Y-27000000D02*
X50000000Y-28100000D01*
X50000000Y-28500000D02*
X50000000Y-29600000D01*
X50000000Y-30000000D02*
X50000000Y-31100000D01*
X50000000Y-31500000D02*
X50000000Y-32600000D01*
X50000000Y-33000000D02*
X50000000Y-34100000D01*
X50000000Y-34500000D02*
X50000000Y-35600000D01*
X50000000Y-36000000D02*
X50000000Y-37100000D01*
X50000000Y-37500000D02*
X50000000Y-38600000D01*
X50000000Y-39000000D02*
X50000000Y-40100000D01*
X50000000Y-40500000D02*
X50000000Y-41600000D01*
X50000000Y-42000000D02*
X50000000Y-43100000D01*
X50000000Y-43500000D02*
X50000000Y-44600000D01*
X50000000Y-45000000D02*
X50000000Y-46100000D01*
X50000000Y-46500000D02*
X50000000Y-47600000D01*
X50000000Y-48000000D02*
X50000000Y-49100000D01*
X50000000Y-49500000D02*
X50000000Y-50600000D01*
X50000000Y-51000000D02*
X50000000Y-51000000D01*
X57000000Y0D02*
X57000000Y-1100000D01*
X57000000Y-1500000D02*
X57000000Y-2600000D01*
X57000000Y-3000000D02*
X57000000Y-4100000D01*
X57000000Y-4500000D02*
X57000000Y-5600000D01*
X57000000Y-6000000D02*
X57000000Y-7100000D01*
X57000000Y-7500000D02*
X57000000Y-8600000D01*
X57000000Y-9000000D02*
X57000000Y-10100000D01*
X57000000Y-10500000D02*
X57000000Y-11600000D01*
X57000000Y-12000000D02*
X57000000Y-13100000D01*
X57000000Y-13500000D02*
X57000000Y-14600000D01*
X57000000Y-15000000D02*
X57000000Y-16100000D01*
X57000000Y-16500000D02*
X57000000Y-17600000D01*
X57000000Y-18000000D02*
X57000000Y-19100000D01*
X57000000Y-19500000D02*
X57000000Y-20600000D01*
X57000000Y-21000000D02*
X57000000Y-22100000D01*
X57000000Y-22500000D02*
X57000000Y-23600000D01*
X57000000Y-24000000D02*
X57000000Y-25100000D01*
X57000000Y-25500000D02*
X57000000Y-26600000D01*
X57000000Y-27000000D02*
X57000000Y-28100000D01*
X57000000Y-28500000D02*
X57000000Y-29600000D01*
X57000000Y-30000000D02*
X57000000Y-31100000D01*
X57000000Y-31500000D02*
X57000000Y-32600000D01*
X57000000Y-33000000D02*
X57000000Y-34100000D01*
X57000000Y-34500000D02*
X57000000Y-35600000D01*
X57000000Y-36000000D02*
X57000000Y-37100000D01*
X57000000Y-37500000D02*
X57000000Y-38600000D01*
X57000000Y-39000000D02*
X57000000Y-40100000D01*
X57000000Y-40500000D02*
X57000000Y-41600000D01*
X57000000Y-42000000D02*
X57000000Y-43100000D01*
X57000000Y-43500000D02*
X57000000Y-44600000D01*
X57000000Y-45000000D02*
X57000000Y-46100000D01*
X57000000Y-46500000D02*
X57000000Y-47600000D01*
X57000000Y-48000000D02*
X57000000Y-49100000D01*
X57000000Y-49500000D02*
X57000000Y-50600000D01*
X57000000Y-51000000D02*
X57000000Y-51000000D01*
D11*
X14428572Y-3347342D02*
X15114287Y-3347342D01*
X14771429Y-4547342D02*
X14771429Y-3347342D01*
X15514287Y-3918771D02*
X15914287Y-3918771D01*
X16085715Y-4547342D02*
X15514287Y-4547342D01*
X15514287Y-4547342D02*
X15514287Y-3347342D01*
X15514287Y-3347342D02*
X16085715Y-3347342D01*
X16485715Y-3347342D02*
X17285715Y-4547342D01*
X17285715Y-3347342D02*
X16485715Y-4547342D01*
X17571429Y-3347342D02*
X18257144Y-3347342D01*
X17914286Y-4547342D02*
X17914286Y-3347342D01*
X19457144Y-3347342D02*
X20257144Y-3347342D01*
X20257144Y-3347342D02*
X19457144Y-4547342D01*
X19457144Y-4547342D02*
X20257144Y-4547342D01*
X20942858Y-3347342D02*
X21171430Y-3347342D01*
X21171430Y-3347342D02*
X21285715Y-3404485D01*
X21285715Y-3404485D02*
X21400001Y-3518771D01*
X21400001Y-3518771D02*
X21457144Y-3747342D01*
X21457144Y-3747342D02*
X21457144Y-4147342D01*
X21457144Y-4147342D02*
X21400001Y-4375914D01*
X21400001Y-4375914D02*
X21285715Y-4490200D01*
X21285715Y-4490200D02*
X21171430Y-4547342D01*
X21171430Y-4547342D02*
X20942858Y-4547342D01*
X20942858Y-4547342D02*
X20828573Y-4490200D01*
X20828573Y-4490200D02*
X20714287Y-4375914D01*
X20714287Y-4375914D02*
X20657144Y-4147342D01*
X20657144Y-4147342D02*
X20657144Y-3747342D01*
X20657144Y-3747342D02*
X20714287Y-3518771D01*
X20714287Y-3518771D02*
X20828573Y-3404485D01*
X20828573Y-3404485D02*
X20942858Y-3347342D01*
X21971430Y-4547342D02*
X21971430Y-3347342D01*
X21971430Y-3347342D02*
X22657144Y-4547342D01*
X22657144Y-4547342D02*
X22657144Y-3347342D01*
X23228573Y-3918771D02*
X23628573Y-3918771D01*
X23800001Y-4547342D02*
X23228573Y-4547342D01*
X23228573Y-4547342D02*
X23228573Y-3347342D01*
X23228573Y-3347342D02*
X23800001Y-3347342D01*
X25571430Y-5004485D02*
X25514287Y-4947342D01*
X25514287Y-4947342D02*
X25400001Y-4775914D01*
X25400001Y-4775914D02*
X25342859Y-4661628D01*
X25342859Y-4661628D02*
X25285716Y-4490200D01*
X25285716Y-4490200D02*
X25228573Y-4204485D01*
X25228573Y-4204485D02*
X25228573Y-3975914D01*
X25228573Y-3975914D02*
X25285716Y-3690200D01*
X25285716Y-3690200D02*
X25342859Y-3518771D01*
X25342859Y-3518771D02*
X25400001Y-3404485D01*
X25400001Y-3404485D02*
X25514287Y-3233057D01*
X25514287Y-3233057D02*
X25571430Y-3175914D01*
X26028573Y-3747342D02*
X26028573Y-4547342D01*
X26028573Y-3861628D02*
X26085716Y-3804485D01*
X26085716Y-3804485D02*
X26200001Y-3747342D01*
X26200001Y-3747342D02*
X26371430Y-3747342D01*
X26371430Y-3747342D02*
X26485716Y-3804485D01*
X26485716Y-3804485D02*
X26542859Y-3918771D01*
X26542859Y-3918771D02*
X26542859Y-4547342D01*
X27285715Y-4547342D02*
X27171430Y-4490200D01*
X27171430Y-4490200D02*
X27114287Y-4433057D01*
X27114287Y-4433057D02*
X27057144Y-4318771D01*
X27057144Y-4318771D02*
X27057144Y-3975914D01*
X27057144Y-3975914D02*
X27114287Y-3861628D01*
X27114287Y-3861628D02*
X27171430Y-3804485D01*
X27171430Y-3804485D02*
X27285715Y-3747342D01*
X27285715Y-3747342D02*
X27457144Y-3747342D01*
X27457144Y-3747342D02*
X27571430Y-3804485D01*
X27571430Y-3804485D02*
X27628573Y-3861628D01*
X27628573Y-3861628D02*
X27685715Y-3975914D01*
X27685715Y-3975914D02*
X27685715Y-4318771D01*
X27685715Y-4318771D02*
X27628573Y-4433057D01*
X27628573Y-4433057D02*
X27571430Y-4490200D01*
X27571430Y-4490200D02*
X27457144Y-4547342D01*
X27457144Y-4547342D02*
X27285715Y-4547342D01*
X29628573Y-4490200D02*
X29514287Y-4547342D01*
X29514287Y-4547342D02*
X29285715Y-4547342D01*
X29285715Y-4547342D02*
X29171430Y-4490200D01*
X29171430Y-4490200D02*
X29114287Y-4433057D01*
X29114287Y-4433057D02*
X29057144Y-4318771D01*
X29057144Y-4318771D02*
X29057144Y-3975914D01*
X29057144Y-3975914D02*
X29114287Y-3861628D01*
X29114287Y-3861628D02*
X29171430Y-3804485D01*
X29171430Y-3804485D02*
X29285715Y-3747342D01*
X29285715Y-3747342D02*
X29514287Y-3747342D01*
X29514287Y-3747342D02*
X29628573Y-3804485D01*
X30314286Y-4547342D02*
X30200001Y-4490200D01*
X30200001Y-4490200D02*
X30142858Y-4433057D01*
X30142858Y-4433057D02*
X30085715Y-4318771D01*
X30085715Y-4318771D02*
X30085715Y-3975914D01*
X30085715Y-3975914D02*
X30142858Y-3861628D01*
X30142858Y-3861628D02*
X30200001Y-3804485D01*
X30200001Y-3804485D02*
X30314286Y-3747342D01*
X30314286Y-3747342D02*
X30485715Y-3747342D01*
X30485715Y-3747342D02*
X30600001Y-3804485D01*
X30600001Y-3804485D02*
X30657144Y-3861628D01*
X30657144Y-3861628D02*
X30714286Y-3975914D01*
X30714286Y-3975914D02*
X30714286Y-4318771D01*
X30714286Y-4318771D02*
X30657144Y-4433057D01*
X30657144Y-4433057D02*
X30600001Y-4490200D01*
X30600001Y-4490200D02*
X30485715Y-4547342D01*
X30485715Y-4547342D02*
X30314286Y-4547342D01*
X31228572Y-3747342D02*
X31228572Y-4947342D01*
X31228572Y-3804485D02*
X31342858Y-3747342D01*
X31342858Y-3747342D02*
X31571429Y-3747342D01*
X31571429Y-3747342D02*
X31685715Y-3804485D01*
X31685715Y-3804485D02*
X31742858Y-3861628D01*
X31742858Y-3861628D02*
X31800000Y-3975914D01*
X31800000Y-3975914D02*
X31800000Y-4318771D01*
X31800000Y-4318771D02*
X31742858Y-4433057D01*
X31742858Y-4433057D02*
X31685715Y-4490200D01*
X31685715Y-4490200D02*
X31571429Y-4547342D01*
X31571429Y-4547342D02*
X31342858Y-4547342D01*
X31342858Y-4547342D02*
X31228572Y-4490200D01*
X32314286Y-3747342D02*
X32314286Y-4947342D01*
X32314286Y-3804485D02*
X32428572Y-3747342D01*
X32428572Y-3747342D02*
X32657143Y-3747342D01*
X32657143Y-3747342D02*
X32771429Y-3804485D01*
X32771429Y-3804485D02*
X32828572Y-3861628D01*
X32828572Y-3861628D02*
X32885714Y-3975914D01*
X32885714Y-3975914D02*
X32885714Y-4318771D01*
X32885714Y-4318771D02*
X32828572Y-4433057D01*
X32828572Y-4433057D02*
X32771429Y-4490200D01*
X32771429Y-4490200D02*
X32657143Y-4547342D01*
X32657143Y-4547342D02*
X32428572Y-4547342D01*
X32428572Y-4547342D02*
X32314286Y-4490200D01*
X33857143Y-4490200D02*
X33742857Y-4547342D01*
X33742857Y-4547342D02*
X33514286Y-4547342D01*
X33514286Y-4547342D02*
X33400000Y-4490200D01*
X33400000Y-4490200D02*
X33342857Y-4375914D01*
X33342857Y-4375914D02*
X33342857Y-3918771D01*
X33342857Y-3918771D02*
X33400000Y-3804485D01*
X33400000Y-3804485D02*
X33514286Y-3747342D01*
X33514286Y-3747342D02*
X33742857Y-3747342D01*
X33742857Y-3747342D02*
X33857143Y-3804485D01*
X33857143Y-3804485D02*
X33914286Y-3918771D01*
X33914286Y-3918771D02*
X33914286Y-4033057D01*
X33914286Y-4033057D02*
X33342857Y-4147342D01*
X34428571Y-4547342D02*
X34428571Y-3747342D01*
X34428571Y-3975914D02*
X34485714Y-3861628D01*
X34485714Y-3861628D02*
X34542857Y-3804485D01*
X34542857Y-3804485D02*
X34657142Y-3747342D01*
X34657142Y-3747342D02*
X34771428Y-3747342D01*
X35057142Y-5004485D02*
X35114285Y-4947342D01*
X35114285Y-4947342D02*
X35228571Y-4775914D01*
X35228571Y-4775914D02*
X35285714Y-4661628D01*
X35285714Y-4661628D02*
X35342856Y-4490200D01*
X35342856Y-4490200D02*
X35399999Y-4204485D01*
X35399999Y-4204485D02*
X35399999Y-3975914D01*
X35399999Y-3975914D02*
X35342856Y-3690200D01*
X35342856Y-3690200D02*
X35285714Y-3518771D01*
X35285714Y-3518771D02*
X35228571Y-3404485D01*
X35228571Y-3404485D02*
X35114285Y-3233057D01*
X35114285Y-3233057D02*
X35057142Y-3175914D01*
X70042857Y-4547342D02*
X70042857Y-3347342D01*
X70042857Y-3347342D02*
X70728571Y-4547342D01*
X70728571Y-4547342D02*
X70728571Y-3347342D01*
X71700000Y-3918771D02*
X71300000Y-3918771D01*
X71300000Y-4547342D02*
X71300000Y-3347342D01*
X71300000Y-3347342D02*
X71871428Y-3347342D01*
X73014285Y-4433057D02*
X72957142Y-4490200D01*
X72957142Y-4490200D02*
X72785714Y-4547342D01*
X72785714Y-4547342D02*
X72671428Y-4547342D01*
X72671428Y-4547342D02*
X72499999Y-4490200D01*
X72499999Y-4490200D02*
X72385714Y-4375914D01*
X72385714Y-4375914D02*
X72328571Y-4261628D01*
X72328571Y-4261628D02*
X72271428Y-4033057D01*
X72271428Y-4033057D02*
X72271428Y-3861628D01*
X72271428Y-3861628D02*
X72328571Y-3633057D01*
X72328571Y-3633057D02*
X72385714Y-3518771D01*
X72385714Y-3518771D02*
X72499999Y-3404485D01*
X72499999Y-3404485D02*
X72671428Y-3347342D01*
X72671428Y-3347342D02*
X72785714Y-3347342D01*
X72785714Y-3347342D02*
X72957142Y-3404485D01*
X72957142Y-3404485D02*
X73014285Y-3461628D01*
M02*
