%TF.GenerationSoftware,KiCad,Pcbnew,10.0.4*%
%TF.CreationDate,2026-07-15T23:55:18+09:00*%
%TF.ProjectId,nfc-business-card,6e66632d-6275-4736-996e-6573732d6361,B*%
%TF.SameCoordinates,Original*%
%TF.FileFunction,AssemblyDrawing,Top*%
%FSLAX46Y46*%
G04 Gerber Fmt 4.6, Leading zero omitted, Abs format (unit mm)*
G04 Created by KiCad (PCBNEW 10.0.4) date 2026-07-15 23:55:18*
%MOMM*%
%LPD*%
G01*
G04 APERTURE LIST*
%ADD10C,0.080000*%
%ADD11C,0.100000*%
G04 APERTURE END LIST*
D10*
X51714286Y-6802149D02*
X51714286Y-6302149D01*
X51714286Y-6302149D02*
X52000000Y-6802149D01*
X52000000Y-6802149D02*
X52000000Y-6302149D01*
X52166668Y-6302149D02*
X52452382Y-6302149D01*
X52309525Y-6802149D02*
X52309525Y-6302149D01*
X52571429Y-6302149D02*
X52880953Y-6302149D01*
X52880953Y-6302149D02*
X52714286Y-6492625D01*
X52714286Y-6492625D02*
X52785715Y-6492625D01*
X52785715Y-6492625D02*
X52833334Y-6516435D01*
X52833334Y-6516435D02*
X52857143Y-6540244D01*
X52857143Y-6540244D02*
X52880953Y-6587863D01*
X52880953Y-6587863D02*
X52880953Y-6706911D01*
X52880953Y-6706911D02*
X52857143Y-6754530D01*
X52857143Y-6754530D02*
X52833334Y-6778340D01*
X52833334Y-6778340D02*
X52785715Y-6802149D01*
X52785715Y-6802149D02*
X52642858Y-6802149D01*
X52642858Y-6802149D02*
X52595239Y-6778340D01*
X52595239Y-6778340D02*
X52571429Y-6754530D01*
X53095238Y-6802149D02*
X53095238Y-6302149D01*
X53095238Y-6540244D02*
X53380952Y-6540244D01*
X53380952Y-6802149D02*
X53380952Y-6302149D01*
X53595239Y-6349768D02*
X53619048Y-6325959D01*
X53619048Y-6325959D02*
X53666667Y-6302149D01*
X53666667Y-6302149D02*
X53785715Y-6302149D01*
X53785715Y-6302149D02*
X53833334Y-6325959D01*
X53833334Y-6325959D02*
X53857143Y-6349768D01*
X53857143Y-6349768D02*
X53880953Y-6397387D01*
X53880953Y-6397387D02*
X53880953Y-6445006D01*
X53880953Y-6445006D02*
X53857143Y-6516435D01*
X53857143Y-6516435D02*
X53571429Y-6802149D01*
X53571429Y-6802149D02*
X53880953Y-6802149D01*
X54357143Y-6802149D02*
X54071429Y-6802149D01*
X54214286Y-6802149D02*
X54214286Y-6302149D01*
X54214286Y-6302149D02*
X54166667Y-6373578D01*
X54166667Y-6373578D02*
X54119048Y-6421197D01*
X54119048Y-6421197D02*
X54071429Y-6445006D01*
X54833333Y-6802149D02*
X54547619Y-6802149D01*
X54690476Y-6802149D02*
X54690476Y-6302149D01*
X54690476Y-6302149D02*
X54642857Y-6373578D01*
X54642857Y-6373578D02*
X54595238Y-6421197D01*
X54595238Y-6421197D02*
X54547619Y-6445006D01*
X55309523Y-6802149D02*
X55023809Y-6802149D01*
X55166666Y-6802149D02*
X55166666Y-6302149D01*
X55166666Y-6302149D02*
X55119047Y-6373578D01*
X55119047Y-6373578D02*
X55071428Y-6421197D01*
X55071428Y-6421197D02*
X55023809Y-6445006D01*
X52857142Y-8802149D02*
X52857142Y-8302149D01*
X52857142Y-8302149D02*
X52976190Y-8302149D01*
X52976190Y-8302149D02*
X53047618Y-8325959D01*
X53047618Y-8325959D02*
X53095237Y-8373578D01*
X53095237Y-8373578D02*
X53119047Y-8421197D01*
X53119047Y-8421197D02*
X53142856Y-8516435D01*
X53142856Y-8516435D02*
X53142856Y-8587863D01*
X53142856Y-8587863D02*
X53119047Y-8683101D01*
X53119047Y-8683101D02*
X53095237Y-8730720D01*
X53095237Y-8730720D02*
X53047618Y-8778340D01*
X53047618Y-8778340D02*
X52976190Y-8802149D01*
X52976190Y-8802149D02*
X52857142Y-8802149D01*
X53357142Y-8802149D02*
X53357142Y-8302149D01*
X53357142Y-8302149D02*
X53642856Y-8802149D01*
X53642856Y-8802149D02*
X53642856Y-8302149D01*
X53880952Y-8802149D02*
X53880952Y-8302149D01*
X53880952Y-8302149D02*
X54071428Y-8302149D01*
X54071428Y-8302149D02*
X54119047Y-8325959D01*
X54119047Y-8325959D02*
X54142857Y-8349768D01*
X54142857Y-8349768D02*
X54166666Y-8397387D01*
X54166666Y-8397387D02*
X54166666Y-8468816D01*
X54166666Y-8468816D02*
X54142857Y-8516435D01*
X54142857Y-8516435D02*
X54119047Y-8540244D01*
X54119047Y-8540244D02*
X54071428Y-8564054D01*
X54071428Y-8564054D02*
X53880952Y-8564054D01*
%TO.C,U1*%
D11*
X52700000Y-3575000D02*
X54300000Y-3575000D01*
X54300000Y-5175000D01*
X52700000Y-5175000D01*
X52700000Y-3575000D01*
%TD*%
X52455000Y-6730000D02*
X54545000Y-8020000D01*
X54545000Y-6730000D02*
X52455000Y-8020000D01*
M02*
