%TF.GenerationSoftware,KiCad,Pcbnew,10.0.4*%
%TF.CreationDate,2026-08-02T23:43:31+09:00*%
%TF.ProjectId,nfc-business-card,6e66632d-6275-4736-996e-6573732d6361,B*%
%TF.SameCoordinates,Original*%
%TF.FileFunction,AssemblyDrawing,Top*%
%FSLAX46Y46*%
G04 Gerber Fmt 4.6, Leading zero omitted, Abs format (unit mm)*
G04 Created by KiCad (PCBNEW 10.0.4) date 2026-08-02 23:43:31*
%MOMM*%
%LPD*%
G01*
G04 APERTURE LIST*
%ADD10C,0.080000*%
%ADD11C,0.100000*%
G04 APERTURE END LIST*
D10*
X50202381Y-6802149D02*
X50202381Y-6302149D01*
X50202381Y-6302149D02*
X50488095Y-6802149D01*
X50488095Y-6802149D02*
X50488095Y-6302149D01*
X50654763Y-6302149D02*
X50940477Y-6302149D01*
X50797620Y-6802149D02*
X50797620Y-6302149D01*
X51059524Y-6302149D02*
X51369048Y-6302149D01*
X51369048Y-6302149D02*
X51202381Y-6492625D01*
X51202381Y-6492625D02*
X51273810Y-6492625D01*
X51273810Y-6492625D02*
X51321429Y-6516435D01*
X51321429Y-6516435D02*
X51345238Y-6540244D01*
X51345238Y-6540244D02*
X51369048Y-6587863D01*
X51369048Y-6587863D02*
X51369048Y-6706911D01*
X51369048Y-6706911D02*
X51345238Y-6754530D01*
X51345238Y-6754530D02*
X51321429Y-6778340D01*
X51321429Y-6778340D02*
X51273810Y-6802149D01*
X51273810Y-6802149D02*
X51130953Y-6802149D01*
X51130953Y-6802149D02*
X51083334Y-6778340D01*
X51083334Y-6778340D02*
X51059524Y-6754530D01*
X51583333Y-6802149D02*
X51583333Y-6302149D01*
X51583333Y-6540244D02*
X51869047Y-6540244D01*
X51869047Y-6802149D02*
X51869047Y-6302149D01*
X52083334Y-6349768D02*
X52107143Y-6325959D01*
X52107143Y-6325959D02*
X52154762Y-6302149D01*
X52154762Y-6302149D02*
X52273810Y-6302149D01*
X52273810Y-6302149D02*
X52321429Y-6325959D01*
X52321429Y-6325959D02*
X52345238Y-6349768D01*
X52345238Y-6349768D02*
X52369048Y-6397387D01*
X52369048Y-6397387D02*
X52369048Y-6445006D01*
X52369048Y-6445006D02*
X52345238Y-6516435D01*
X52345238Y-6516435D02*
X52059524Y-6802149D01*
X52059524Y-6802149D02*
X52369048Y-6802149D01*
X52845238Y-6802149D02*
X52559524Y-6802149D01*
X52702381Y-6802149D02*
X52702381Y-6302149D01*
X52702381Y-6302149D02*
X52654762Y-6373578D01*
X52654762Y-6373578D02*
X52607143Y-6421197D01*
X52607143Y-6421197D02*
X52559524Y-6445006D01*
X53321428Y-6802149D02*
X53035714Y-6802149D01*
X53178571Y-6802149D02*
X53178571Y-6302149D01*
X53178571Y-6302149D02*
X53130952Y-6373578D01*
X53130952Y-6373578D02*
X53083333Y-6421197D01*
X53083333Y-6421197D02*
X53035714Y-6445006D01*
X53797618Y-6802149D02*
X53511904Y-6802149D01*
X53654761Y-6802149D02*
X53654761Y-6302149D01*
X53654761Y-6302149D02*
X53607142Y-6373578D01*
X53607142Y-6373578D02*
X53559523Y-6421197D01*
X53559523Y-6421197D02*
X53511904Y-6445006D01*
X53964284Y-6302149D02*
X54083332Y-6802149D01*
X54083332Y-6802149D02*
X54178570Y-6445006D01*
X54178570Y-6445006D02*
X54273808Y-6802149D01*
X54273808Y-6802149D02*
X54392856Y-6302149D01*
X54678570Y-6302149D02*
X54726189Y-6302149D01*
X54726189Y-6302149D02*
X54773808Y-6325959D01*
X54773808Y-6325959D02*
X54797618Y-6349768D01*
X54797618Y-6349768D02*
X54821427Y-6397387D01*
X54821427Y-6397387D02*
X54845237Y-6492625D01*
X54845237Y-6492625D02*
X54845237Y-6611673D01*
X54845237Y-6611673D02*
X54821427Y-6706911D01*
X54821427Y-6706911D02*
X54797618Y-6754530D01*
X54797618Y-6754530D02*
X54773808Y-6778340D01*
X54773808Y-6778340D02*
X54726189Y-6802149D01*
X54726189Y-6802149D02*
X54678570Y-6802149D01*
X54678570Y-6802149D02*
X54630951Y-6778340D01*
X54630951Y-6778340D02*
X54607142Y-6754530D01*
X54607142Y-6754530D02*
X54583332Y-6706911D01*
X54583332Y-6706911D02*
X54559523Y-6611673D01*
X54559523Y-6611673D02*
X54559523Y-6492625D01*
X54559523Y-6492625D02*
X54583332Y-6397387D01*
X54583332Y-6397387D02*
X54607142Y-6349768D01*
X54607142Y-6349768D02*
X54630951Y-6325959D01*
X54630951Y-6325959D02*
X54678570Y-6302149D01*
X55226189Y-6540244D02*
X55059522Y-6540244D01*
X55059522Y-6802149D02*
X55059522Y-6302149D01*
X55059522Y-6302149D02*
X55297617Y-6302149D01*
X55488093Y-6802149D02*
X55488093Y-6302149D01*
X55488093Y-6540244D02*
X55773807Y-6540244D01*
X55773807Y-6802149D02*
X55773807Y-6302149D01*
X56011903Y-6802149D02*
X56011903Y-6302149D01*
X56297617Y-6802149D02*
X56083332Y-6516435D01*
X56297617Y-6302149D02*
X56011903Y-6587863D01*
X56511903Y-6802149D02*
X56511903Y-6302149D01*
X56511903Y-6540244D02*
X56797617Y-6540244D01*
X56797617Y-6802149D02*
X56797617Y-6302149D01*
X52857142Y-8802149D02*
X52857142Y-8302149D01*
X52857142Y-8302149D02*
X52976190Y-8302149D01*
X52976190Y-8302149D02*
X53047618Y-8325959D01*
X53047618Y-8325959D02*
X53095237Y-8373578D01*
X53095237Y-8373578D02*
X53119047Y-8421197D01*
X53119047Y-8421197D02*
X53142856Y-8516435D01*
X53142856Y-8516435D02*
X53142856Y-8587863D01*
X53142856Y-8587863D02*
X53119047Y-8683101D01*
X53119047Y-8683101D02*
X53095237Y-8730720D01*
X53095237Y-8730720D02*
X53047618Y-8778340D01*
X53047618Y-8778340D02*
X52976190Y-8802149D01*
X52976190Y-8802149D02*
X52857142Y-8802149D01*
X53357142Y-8802149D02*
X53357142Y-8302149D01*
X53357142Y-8302149D02*
X53642856Y-8802149D01*
X53642856Y-8802149D02*
X53642856Y-8302149D01*
X53880952Y-8802149D02*
X53880952Y-8302149D01*
X53880952Y-8302149D02*
X54071428Y-8302149D01*
X54071428Y-8302149D02*
X54119047Y-8325959D01*
X54119047Y-8325959D02*
X54142857Y-8349768D01*
X54142857Y-8349768D02*
X54166666Y-8397387D01*
X54166666Y-8397387D02*
X54166666Y-8468816D01*
X54166666Y-8468816D02*
X54142857Y-8516435D01*
X54142857Y-8516435D02*
X54119047Y-8540244D01*
X54119047Y-8540244D02*
X54071428Y-8564054D01*
X54071428Y-8564054D02*
X53880952Y-8564054D01*
%TO.C,U1*%
D11*
X52700000Y-3575000D02*
X54300000Y-3575000D01*
X54300000Y-5175000D01*
X52700000Y-5175000D01*
X52700000Y-3575000D01*
%TO.C,C1*%
X53400000Y-7025000D02*
X53600000Y-7025000D01*
X53400000Y-7725000D02*
X53600000Y-7725000D01*
%TD*%
X52455000Y-6730000D02*
X54545000Y-8020000D01*
X54545000Y-6730000D02*
X52455000Y-8020000D01*
M02*
